# xmcd
#
# Track frame offsets:
#	150
#	22148
#	48015
#	68875
#	89640
#	122920
#	142580
#	163083
#	187465
#	212083
#	227525
#
# Disc length: 3315 seconds
#
# Revision: 0
# Processed by: cddbd v1.5.2PL0 Copyright (c) Steve Scherf et al.
# Submitted via: SynApp - FreeCDDB Version: 2.4
#
DISCID=9d0cf10b
DTITLE=Zola Moon - Lost In The Blues
DYEAR=1995
DGENRE=Blues
TTITLE0=01 - Blue Wind
TTITLE1=02 - Lost In The Blues
TTITLE2=03 - Ice Cold Kiss
TTITLE3=04 - Imagination
TTITLE4=05 - Baby Get Lost
TTITLE5=06 - Mother Earth
TTITLE6=07 - Party Boy
TTITLE7=08 - Dangerous Love
TTITLE8=09 - Radio Lover
TTITLE9=10 - Mean, Mean Man
TTITLE10=11 - Funeral In New Orleans
EXTD=
EXTT0=
EXTT1=
EXTT2=
EXTT3=
EXTT4=
EXTT5=
EXTT6=
EXTT7=
EXTT8=
EXTT9=
EXTT10=
PLAYORDER=
